<?xml version="1.0" standalone="no"?>
<!DOCTYPE svg PUBLIC "-//W3C//DTD SVG 20010904//EN"
 "http://www.w3.org/TR/2001/REC-SVG-20010904/DTD/svg10.dtd">
<svg version="1.0" xmlns="http://www.w3.org/2000/svg"
 width="1080.000000pt" height="1080.000000pt" viewBox="0 0 1080.000000 1080.000000"
 preserveAspectRatio="xMidYMid meet">
<metadata>
Created by potrace 1.16, written by Peter Selinger 2001-2019
</metadata>
<g transform="translate(0.000000,1080.000000) scale(0.100000,-0.100000)"
fill="#000000" stroke="none">
<path d="M5100 9370 c-69 -12 -115 -35 -169 -85 -67 -62 -95 -128 -95 -225 -1
-106 24 -171 88 -236 74 -73 142 -97 261 -92 104 5 174 31 224 82 l31 32 -34
33 -34 33 -39 -30 c-49 -38 -92 -52 -163 -52 -99 0 -189 62 -214 147 -7 20 -3
21 101 28 59 4 176 12 258 19 l150 11 -3 49 c-12 186 -176 316 -362 286z m115
-101 c46 -13 119 -82 129 -124 4 -15 5 -29 3 -31 -3 -3 -349 -33 -394 -34 -11
0 1 58 17 90 44 86 145 126 245 99z"/>
<path d="M5636 9323 c-3 -27 -18 -167 -32 -312 -28 -295 -30 -283 46 -279 l45
3 17 178 c13 138 22 189 39 224 29 60 81 93 158 100 l60 6 7 44 c8 56 -3 65
-66 57 -61 -9 -109 -30 -144 -62 l-28 -27 7 51 6 51 -38 6 c-69 12 -71 11 -77
-40z"/>
<path d="M4381 9250 c-88 -19 -164 -72 -207 -146 -10 -17 -13 -15 -24 24 -15
47 -14 46 -76 31 -34 -9 -44 -16 -41 -28 34 -125 231 -817 233 -819 1 -2 27 3
57 12 l54 16 -43 152 c-24 84 -44 154 -44 155 0 1 19 -7 43 -17 59 -27 159
-26 234 2 77 29 154 104 178 176 55 168 -35 377 -184 427 -62 20 -127 26 -180
15z m132 -114 c81 -33 144 -148 133 -240 -23 -198 -277 -262 -386 -97 -35 52
-44 92 -38 166 6 73 42 125 109 159 60 29 130 34 182 12z"/>
<path d="M7081 8961 c-158 -264 -172 -296 -178 -386 -10 -138 63 -247 214
-322 169 -84 326 -44 432 111 24 35 234 386 261 437 8 14 1 23 -39 48 l-49 30
-136 -229 c-138 -233 -183 -291 -242 -316 -79 -33 -205 4 -272 81 -42 47 -52
74 -52 133 1 66 29 127 169 362 132 222 128 208 59 249 l-37 22 -130 -220z"/>
<path d="M3578 8936 c-108 -44 -184 -127 -208 -227 -33 -136 37 -296 159 -362
217 -119 495 43 495 289 0 60 -5 81 -32 137 -39 79 -111 148 -179 171 -69 24
-166 20 -235 -8z m226 -113 c92 -65 133 -201 87 -290 -37 -74 -119 -123 -202
-123 -85 1 -177 81 -205 178 -23 80 -6 143 55 202 56 55 97 71 170 65 40 -3
66 -12 95 -32z"/>
<path d="M2898 8812 c-21 -15 -38 -31 -38 -36 0 -7 185 -262 453 -624 l68 -92
45 32 c24 17 44 34 44 37 -1 11 -515 704 -525 707 -6 2 -27 -9 -47 -24z"/>
<path d="M6301 8743 c-12 -10 -24 -35 -27 -55 -5 -30 -2 -41 19 -62 55 -55
137 -19 137 60 0 61 -80 96 -129 57z"/>
<path d="M7793 8292 l-272 -317 42 -37 c23 -21 45 -38 48 -38 3 0 128 142 277
316 l272 315 -46 40 c-25 21 -46 39 -47 38 -1 0 -125 -143 -274 -317z"/>
<path d="M2736 8323 c-62 -21 -149 -100 -184 -167 -23 -44 -27 -63 -27 -136 0
-73 4 -92 27 -135 36 -68 102 -133 168 -164 45 -21 69 -26 130 -25 97 0 167
34 245 115 61 64 90 118 100 192 7 43 5 47 -13 47 -11 0 -33 3 -49 6 -29 6
-30 4 -37 -36 -14 -86 -72 -161 -156 -199 -57 -26 -113 -26 -169 0 l-45 20
185 185 184 185 -48 44 c-85 78 -202 104 -311 68z m172 -103 c23 -10 42 -23
42 -27 0 -5 -63 -71 -141 -148 -133 -133 -141 -139 -155 -120 -66 89 -23 234
87 289 63 31 108 33 167 6z"/>
<path d="M8112 8031 c-294 -131 -533 -242 -533 -247 2 -20 43 -64 60 -64 26 0
1075 466 1079 480 5 14 -47 70 -62 69 -6 -1 -251 -108 -544 -238z"/>
<path d="M8484 7819 c-120 -77 -238 -159 -262 -182 -24 -23 -57 -70 -74 -104
-27 -56 -30 -70 -27 -135 7 -129 96 -270 211 -333 46 -26 64 -29 133 -30 69 0
89 4 145 31 54 26 447 270 473 294 12 11 -46 101 -61 95 -7 -2 -101 -62 -210
-131 -108 -70 -219 -138 -247 -151 -106 -49 -213 -20 -278 75 -78 111 -74 208
11 295 20 21 129 97 242 169 113 72 211 136 218 143 11 10 8 20 -15 58 -15 26
-31 47 -34 47 -3 0 -105 -63 -225 -141z"/>
<path d="M2302 7899 l-32 -42 19 -31 c144 -232 270 -440 268 -442 -1 -1 -119
22 -262 52 -143 29 -264 53 -270 54 -5 0 -24 -22 -41 -48 l-32 -48 341 -68
c272 -54 342 -65 348 -54 4 7 19 28 33 47 14 19 24 37 22 40 -20 38 -342 559
-351 569 -10 11 -18 6 -43 -29z"/>
<path d="M1975 7207 c-62 -21 -97 -42 -137 -84 -89 -92 -118 -240 -69 -351 69
-154 277 -237 430 -172 68 30 152 120 182 197 26 67 33 202 11 240 -12 21 -14
21 -56 7 l-43 -15 10 -43 c21 -92 -27 -212 -104 -263 -49 -32 -169 -47 -169
-21 0 8 45 115 100 237 55 123 97 227 95 231 -9 14 -99 41 -155 45 -32 3 -72
-1 -95 -8z m129 -105 c4 -6 -147 -358 -159 -370 -12 -12 -84 78 -95 118 -25
92 30 209 115 246 33 14 131 19 139 6z"/>
<path d="M9061 6926 l-142 -205 -47 15 c-26 7 -139 42 -252 77 -113 35 -206
63 -208 62 -1 -1 8 -31 20 -65 l23 -64 190 -56 c105 -31 196 -58 203 -61 8 -3
-30 -66 -108 -178 -66 -96 -120 -177 -120 -180 0 -7 40 -115 44 -119 2 -1 71
96 154 217 l151 219 193 -59 c268 -82 288 -88 288 -86 0 2 -10 30 -23 62 l-23
60 -185 56 c-118 35 -183 60 -181 68 1 6 42 69 91 139 137 197 126 173 106
234 -10 29 -21 57 -25 61 -4 4 -71 -84 -149 -197z"/>
<path d="M1593 6536 c-144 -47 -246 -169 -286 -341 -28 -117 -68 -346 -64
-358 3 -10 807 -169 815 -162 2 2 20 84 40 182 56 283 48 395 -39 526 -36 55
-110 112 -182 139 -67 26 -223 34 -284 14z m270 -140 c149 -73 192 -208 144
-454 -13 -67 -26 -125 -29 -127 -5 -6 -600 105 -610 114 -14 12 48 287 78 341
34 63 100 123 157 144 67 25 191 16 260 -18z"/>
<path d="M8773 5812 l-53 -3 0 -197 c0 -218 12 -296 55 -382 77 -151 220 -229
402 -217 183 11 311 119 367 306 13 43 16 102 16 278 l0 223 -367 -2 c-203 -1
-392 -4 -420 -6z m685 -274 c-6 -199 -18 -238 -98 -319 -43 -43 -68 -59 -114
-73 -129 -41 -273 1 -348 99 -52 68 -66 125 -71 297 l-4 147 41 4 c23 2 166 4
320 5 l278 2 -4 -162z"/>
<path d="M1881 5175 l-162 -166 -141 110 c-78 61 -143 109 -146 107 -2 -3 -1
-32 3 -65 l7 -59 175 -148 c119 -100 171 -149 161 -154 -7 -4 -132 -23 -277
-41 l-263 -33 4 -53 c3 -29 7 -55 9 -58 3 -2 202 22 443 53 l438 57 -6 54 c-4
30 -8 56 -10 58 -1 2 -37 -2 -80 -7 -42 -6 -84 -9 -94 -5 -9 3 -43 29 -75 58
l-57 52 130 137 131 137 -7 53 c-4 29 -10 59 -14 66 -4 9 -59 -41 -169 -153z"/>
<path d="M8829 4912 c-131 -54 -209 -181 -209 -344 0 -68 30 -168 51 -168 14
0 79 33 79 41 0 3 -7 23 -15 42 -30 73 -14 189 36 257 27 36 111 80 154 80
l31 0 -56 -247 c-31 -137 -54 -252 -50 -256 14 -16 115 -25 170 -15 99 18 172
73 221 168 21 39 24 59 24 145 0 83 -4 107 -22 140 -28 54 -103 122 -161 148
-66 29 -191 34 -253 9z m299 -176 c111 -126 14 -336 -155 -336 -13 0 -23 4
-23 9 0 10 79 360 85 379 7 19 54 -8 93 -52z"/>
<path d="M2011 4564 c-7 -26 -11 -47 -9 -48 90 -39 139 -105 146 -195 10 -132
-89 -230 -233 -230 -103 -1 -182 66 -206 174 -12 53 -7 82 25 156 5 11 -4 24
-30 44 l-37 28 -22 -27 c-48 -61 -57 -155 -25 -257 65 -206 262 -291 456 -198
71 34 117 81 151 157 66 144 -2 353 -139 423 -55 28 -64 25 -77 -27z"/>
<path d="M8558 4282 c-83 -87 -138 -209 -138 -306 0 -104 72 -185 163 -186 71
0 113 35 207 174 55 83 82 106 121 106 97 0 77 -172 -33 -287 l-40 -41 28 -36
c16 -20 34 -36 41 -36 19 0 91 91 122 155 78 158 60 288 -49 343 -104 52 -167
16 -289 -169 -52 -78 -87 -104 -125 -90 -81 32 -46 191 69 305 l52 53 -29 36
c-17 20 -33 37 -37 37 -5 0 -33 -26 -63 -58z"/>
<path d="M2188 3921 c-219 -122 -231 -131 -265 -189 -40 -67 -39 -144 3 -232
35 -75 114 -165 171 -197 l40 -23 27 41 c15 22 26 42 24 43 -2 1 -20 13 -40
25 -95 57 -161 177 -139 251 10 34 69 100 90 100 4 0 31 -42 59 -93 92 -167
146 -217 236 -217 107 0 183 85 174 194 -9 104 -102 234 -181 252 -29 6 -30 7
-11 21 10 8 25 18 33 22 11 7 8 17 -14 55 -15 25 -28 46 -28 46 -1 0 -82 -45
-179 -99z m135 -102 c50 -14 100 -59 126 -114 29 -61 27 -98 -6 -134 -66 -71
-120 -43 -205 104 -32 55 -58 102 -58 105 0 8 74 49 90 50 8 0 32 -5 53 -11z"/>
<path d="M8270 3745 c-15 -28 -21 -48 -15 -53 17 -14 537 -314 540 -310 1 2
14 24 29 49 l27 47 -33 20 c-127 76 -506 292 -514 292 -5 0 -20 -20 -34 -45z"/>
<path d="M8015 3654 c-55 -20 -149 -92 -202 -156 -121 -147 -128 -282 -21
-404 18 -20 127 -113 243 -207 115 -93 218 -177 228 -186 17 -14 21 -12 52 24
19 22 34 42 34 45 0 3 -16 17 -35 32 l-36 27 39 7 c141 25 263 175 263 323 0
86 -25 147 -84 206 -105 105 -225 128 -349 67 -115 -57 -190 -164 -191 -274
l-1 -57 -30 23 c-129 100 -126 230 9 353 30 28 80 61 111 74 59 24 63 31 41
84 -17 39 -16 39 -71 19z m367 -342 c134 -92 109 -295 -45 -374 -61 -31 -153
-23 -204 18 -78 63 -105 133 -84 214 17 65 57 117 116 151 43 26 58 30 110 27
48 -3 69 -10 107 -36z"/>
<path d="M2606 3455 c-11 -19 -17 -36 -15 -38 2 -2 16 -8 32 -15 30 -13 67
-66 67 -97 0 -37 -35 -74 -174 -185 -76 -60 -140 -110 -141 -110 -2 0 -28 32
-59 70 l-57 70 -35 -26 c-18 -15 -34 -29 -34 -33 0 -3 23 -34 50 -68 28 -34
50 -66 50 -72 0 -5 -22 -27 -50 -49 l-50 -40 36 -46 35 -47 49 41 c26 22 52
40 58 40 5 0 22 -16 36 -35 15 -19 30 -35 34 -35 4 0 22 12 40 28 l33 27 -32
38 c-38 46 -50 30 138 182 75 61 146 122 156 137 52 70 25 183 -60 258 -57 50
-82 51 -107 5z"/>
<path d="M8963 3400 c-49 -20 -59 -96 -17 -129 34 -26 64 -27 92 -1 44 41 40
100 -8 125 -33 17 -36 17 -67 5z"/>
<path d="M2839 3067 c-47 -32 -79 -83 -79 -126 1 -48 26 -99 98 -200 34 -47
64 -98 68 -113 7 -36 -17 -75 -52 -84 -58 -15 -160 65 -209 164 -14 28 -29 52
-32 52 -25 0 -83 -26 -83 -37 0 -60 135 -220 221 -261 63 -30 144 -30 190 1
50 34 79 82 79 134 0 53 -14 83 -91 190 -32 44 -63 93 -69 107 -22 59 31 107
94 86 67 -22 196 -175 196 -232 0 -21 20 -23 67 -6 42 15 42 33 1 112 -42 79
-141 179 -210 211 -70 33 -142 34 -189 2z"/>
<path d="M7645 2956 c-30 -26 -37 -37 -29 -47 6 -8 55 -70 110 -139 115 -146
134 -179 134 -237 0 -59 -20 -101 -67 -144 -74 -67 -151 -74 -215 -21 -17 15
-83 92 -147 172 -63 80 -116 147 -117 149 -2 2 -24 -13 -49 -33 l-45 -37 117
-147 c145 -185 167 -207 222 -234 99 -48 212 -18 304 81 53 57 77 104 77 152
l0 32 33 -37 32 -38 37 29 c22 16 36 35 34 43 -4 18 -375 490 -384 490 -4 0
-25 -15 -47 -34z"/>
<path d="M3411 2230 c-122 -203 -224 -375 -227 -383 -4 -11 9 -24 41 -42 25
-15 48 -26 49 -24 2 2 104 171 226 374 122 204 224 373 226 377 2 3 -18 20
-45 36 l-49 31 -221 -369z"/>
<path d="M6930 2466 c-62 -18 -118 -48 -166 -89 -46 -40 -90 -116 -81 -139 7
-20 80 -45 84 -31 2 6 17 31 32 56 23 35 44 52 95 77 58 29 73 32 129 28 47
-3 74 -10 100 -28 77 -52 81 -48 -173 -175 l-230 -115 20 -41 c31 -59 87 -117
144 -147 73 -38 187 -38 266 -1 74 34 120 76 156 141 26 48 29 62 29 143 0 79
-3 97 -28 145 -76 149 -228 220 -377 176z m298 -329 c5 -90 -31 -147 -118
-186 -56 -25 -113 -26 -165 -2 -38 17 -93 67 -84 75 14 13 346 174 354 172 6
-1 11 -28 13 -59z"/>
<path d="M3701 2057 c-105 -216 -191 -398 -191 -403 0 -11 90 -58 97 -51 9 10
383 783 383 793 0 7 -6 14 -12 17 -7 3 -29 12 -49 21 l-36 15 -192 -392z"/>
<path d="M4041 2028 c-51 -164 -90 -302 -87 -307 6 -9 95 -36 101 -30 2 2 28
82 58 176 59 188 87 241 140 266 83 40 210 8 251 -63 31 -52 23 -108 -38 -309
-32 -101 -56 -184 -54 -186 5 -5 108 -33 108 -30 0 2 27 90 60 197 82 262 81
336 -2 420 -79 79 -220 110 -313 69 -26 -11 -49 -21 -51 -21 -2 0 1 12 6 26
19 48 13 59 -39 76 l-48 15 -92 -299z"/>
<path d="M6433 2258 c-18 -6 -33 -17 -33 -25 0 -8 21 -81 46 -161 58 -187 64
-241 32 -302 -19 -36 -37 -51 -84 -75 l-60 -30 14 -48 c15 -53 25 -56 80 -28
46 24 89 65 111 110 l18 33 13 -46 c7 -25 15 -46 19 -46 21 1 96 29 96 36 0 5
-40 141 -90 302 -98 320 -88 303 -162 280z"/>
<path d="M5733 2110 c-44 -18 -58 -90 -24 -131 27 -34 86 -32 117 5 32 37 30
71 -5 107 -30 30 -50 34 -88 19z"/>
<path d="M5236 2069 c-2 -13 -10 -87 -17 -164 -6 -77 -13 -142 -14 -145 -2 -3
-95 2 -206 12 -224 20 -219 21 -219 -44 0 -44 -13 -41 239 -63 96 -8 175 -16
176 -17 5 -5 -23 -279 -28 -284 -2 -3 -107 4 -232 16 -126 11 -229 19 -231 17
-1 -1 -4 -24 -6 -52 l-3 -49 290 -26 c160 -15 292 -25 294 -24 4 3 79 828 76
832 -2 2 -28 6 -58 9 -53 5 -56 4 -61 -18z"/>
</g>
</svg>
